 <svg  version="1.0" xmlns="http://www.w3.org/2000/svg"  width="193.000000pt" height="261.000000pt" viewBox="0 0 193.000000 261.000000"  preserveAspectRatio="xMidYMid meet">  <g transform="translate(0.000000,261.000000) scale(0.100000,-0.100000)" fill="#3937b3" stroke="none"> <path d="M0 1305 l0 -1305 965 0 965 0 0 1305 0 1305 -965 0 -965 0 0 -1305z m1264 1236 c48 -107 29 -240 -51 -361 -61 -93 -103 -138 -224 -241 -169 -143 -219 -214 -227 -321 -7 -88 13 -139 108 -283 47 -71 90 -137 95 -145 5 -8 -22 13 -61 48 -174 158 -278 313 -278 416 0 103 66 186 291 368 167 133 236 206 279 293 39 79 54 182 36 248 -16 56 2 44 32 -22z m286 -466 c0 -2 -19 -14 -42 -26 -141 -72 -339 -234 -374 -307 -31 -66 -17 -127 56 -237 76 -115 86 -165 51 -239 -22 -44 -120 -144 -164 -167 l-22 -12 21 24 c36 40 54 86 54 137 0 41 -6 59 -35 98 -73 102 -96 141 -111 193 -38 128 21 250 176 364 50 37 188 103 294 142 105 39 96 36 96 30z m268 -904 c167 -85 119 -295 -92 -403 -62 -32 -216 -87 -216 -78 0 5 9 11 19 15 32 10 138 82 186 126 114 105 131 215 46 292 -44 40 -97 53 -150 37 -42 -12 -51 -6 -19 11 63 34 160 34 226 0z m-1150 4 c-3 -3 -39 -14 -80 -25 -93 -24 -159 -52 -178 -75 -13 -15 -12 -19 4 -31 33 -23 105 -29 371 -29 285 1 536 22 715 61 14 3 -6 -10 -44 -30 -125 -65 -361 -97 -716 -97 -365 0 -579 44 -511 105 22 20 115 61 187 82 82 24 265 52 252 39z m-128 -319 c-50 -54 -9 -73 189 -88 155 -12 334 -3 500 27 72 12 87 13 100 1 9 -7 33 -22 54 -33 l39 -19 -99 -22 c-193 -43 -235 -47 -458 -47 -174 1 -234 4 -288 18 -176 44 -202 103 -72 163 63 29 63 29 35 0z m64 -281 c-19 -15 -19 -15 4 -34 14 -12 48 -23 90 -28 103 -12 367 -7 455 9 l77 14 72 -35 71 -36 -100 -31 c-137 -44 -255 -58 -415 -51 -186 8 -326 49 -351 104 -15 33 -2 52 53 81 51 25 73 29 44 7z m-184 -182 c0 -5 -22 -9 -49 -10 -90 -5 -211 -62 -199 -95 8 -19 95 -46 206 -65 121 -20 684 -29 867 -14 289 24 458 59 512 106 25 21 26 26 15 44 -17 30 4 26 23 -3 23 -35 7 -60 -65 -96 -160 -81 -495 -130 -881 -130 -313 0 -720 40 -799 78 -40 19 -51 54 -25 82 19 21 140 78 204 95 50 14 191 20 191 8z m1486 -190 c-27 -53 -113 -99 -246 -133 -170 -43 -264 -52 -615 -57 -368 -5 -519 6 -641 47 -41 14 -49 18 -24 15 150 -20 219 -26 390 -31 461 -15 998 68 1118 171 33 29 38 26 18 -12z"/> <path d="M1257 2420 c-4 -16 -4 -37 0 -47 4 -10 2 -14 -4 -10 -11 7 -40 -58 -35 -75 1 -5 -2 -8 -7 -8 -4 0 -20 -18 -35 -40 -31 -47 -164 -185 -178 -185 -5 0 -15 -7 -21 -16 -7 -8 -20 -18 -29 -22 -10 -3 -18 -11 -18 -17 0 -5 -6 -10 -14 -10 -8 0 -16 -3 -18 -7 -2 -5 -25 -26 -53 -48 -27 -22 -64 -56 -81 -75 -18 -19 -44 -48 -59 -64 -37 -40 -55 -86 -55 -139 0 -42 16 -106 29 -117 4 -3 15 -22 25 -42 11 -20 46 -65 79 -100 33 -35 48 -47 34 -28 -51 73 -72 139 -72 230 0 70 4 94 24 134 28 56 148 180 254 260 21 16 34 33 30 40 -3 6 -3 8 2 4 4 -4 21 7 37 25 16 18 40 44 54 59 35 38 92 136 104 178 12 40 24 150 17 150 -2 0 -7 -13 -10 -30z"/> <path d="M1268 1942 c-10 -2 -18 -8 -18 -13 0 -5 -6 -9 -13 -9 -20 0 -127 -82 -171 -130 -51 -57 -69 -102 -69 -176 -1 -66 33 -154 78 -204 58 -63 75 -101 75 -161 l0 -59 28 27 c34 34 62 91 62 127 0 36 -23 89 -64 145 -87 120 -101 192 -51 277 26 45 103 127 149 160 22 15 20 22 -6 16z"/> <path d="M1780 1138 c49 -51 62 -91 50 -155 -10 -56 -54 -132 -99 -170 -36 -31 -14 -28 34 4 100 68 151 159 131 237 -8 32 -52 79 -93 100 -50 25 -58 19 -23 -16z"/> <path d="M359 1095 c-44 -16 -119 -54 -119 -60 0 -21 126 -49 275 -60 93 -7 375 -7 462 0 168 15 257 26 272 36 14 8 13 9 -4 5 -49 -12 -316 -27 -490 -27 -239 1 -329 11 -356 42 -23 27 -23 29 -3 57 17 25 13 26 -37 7z"/> <path d="M471 814 c-14 -10 -21 -24 -19 -37 7 -53 254 -94 493 -83 77 4 149 8 160 10 134 19 235 38 240 46 3 5 -4 15 -14 22 -17 12 -43 11 -183 -9 -177 -25 -332 -29 -476 -13 -108 12 -133 20 -159 54 -19 23 -22 24 -42 10z"/> <path d="M542 534 c-27 -19 -28 -28 0 -53 69 -65 338 -99 548 -70 80 11 220 48 220 59 0 4 -18 15 -40 25 -37 17 -47 17 -132 4 -114 -17 -402 -17 -478 0 -30 6 -64 21 -75 31 -19 18 -23 18 -43 4z"/> <path d="M122 325 c-53 -23 -92 -55 -92 -75 0 -52 470 -103 875 -95 121 3 229 5 240 5 34 1 259 31 264 36 8 7 -53 4 -110 -6 -73 -12 -543 -19 -699 -9 -164 10 -217 17 -333 45 -98 24 -141 66 -105 102 16 16 1 15 -40 -3z"/> <path d="M1760 130 c-9 -6 -10 -10 -3 -10 6 0 15 5 18 10 8 12 4 12 -15 0z"/> <path d="M1690 110 c-13 -9 -13 -10 0 -10 8 0 22 5 30 10 13 9 13 10 0 10 -8 0 -22 -5 -30 -10z"/> <path d="M1595 85 c-54 -17 -33 -18 30 -1 28 8 41 14 30 14 -11 0 -38 -5 -60 -13z"/> <path d="M1475 65 l-60 -13 60 5 c33 3 64 9 70 14 11 11 7 11 -70 -6z"/> <path d="M1253 33 c9 -2 25 -2 35 0 9 3 1 5 -18 5 -19 0 -27 -2 -17 -5z"/> </g> </svg> 